<svg xmlns="http://www.w3.org/2000/svg" xmlns:xlink="http://www.w3.org/1999/xlink" width="1200" zoomAndPan="magnify" viewBox="0 0 900 899.99999" height="1200" preserveAspectRatio="xMidYMid meet" version="1.0"><path fill="#ffde59" d="M 482.671875 671.617188 C 482.671875 684.707031 472.054688 695.304688 458.984375 695.304688 L 440.902344 695.304688 C 427.8125 695.304688 417.214844 684.707031 417.214844 671.617188 L 417.214844 230.085938 C 417.214844 217.011719 427.8125 206.40625 440.902344 206.40625 L 458.984375 206.40625 C 472.054688 206.40625 482.671875 217.011719 482.671875 230.09375 L 482.671875 671.625 " fill-opacity="1" fill-rule="nonzero"/><path fill="#ffde59" d="M 562.765625 611.730469 C 562.765625 624.804688 552.148438 635.417969 539.078125 635.417969 L 537.683594 635.417969 C 524.613281 635.417969 513.996094 624.804688 513.996094 611.730469 L 513.996094 289.992188 C 513.996094 276.910156 524.613281 266.296875 537.683594 266.296875 L 539.078125 266.296875 C 552.148438 266.296875 562.765625 276.910156 562.765625 289.984375 L 562.765625 611.726562 " fill-opacity="1" fill-rule="nonzero"/><path fill="#ffde59" d="M 632.398438 549.757812 C 632.398438 562.054688 622.417969 572.035156 610.121094 572.035156 C 597.804688 572.035156 587.824219 562.054688 587.824219 549.757812 L 587.824219 351.964844 C 587.824219 339.648438 597.804688 329.667969 610.121094 329.667969 C 622.417969 329.667969 632.398438 339.648438 632.398438 351.964844 L 632.398438 549.757812 " fill-opacity="1" fill-rule="nonzero"/><path fill="#ffde59" d="M 697.871094 604.074219 C 697.871094 614.84375 689.132812 623.566406 678.359375 623.566406 C 667.589844 623.566406 658.871094 614.84375 658.871094 604.074219 L 658.871094 297.628906 C 658.871094 286.871094 667.589844 278.140625 678.359375 278.140625 C 689.132812 278.140625 697.871094 286.871094 697.871094 297.636719 L 697.871094 604.082031 " fill-opacity="1" fill-rule="nonzero"/><path fill="#ffde59" d="M 759.171875 517.71875 C 759.171875 527.714844 751.046875 535.816406 741.050781 535.816406 C 731.054688 535.816406 722.953125 527.714844 722.953125 517.71875 L 722.953125 383.984375 C 722.953125 373.988281 731.054688 365.886719 741.050781 365.886719 C 751.046875 365.886719 759.171875 373.988281 759.171875 383.984375 L 759.171875 517.71875 " fill-opacity="1" fill-rule="nonzero"/><path fill="#ffde59" d="M 813.488281 495.441406 C 813.488281 503.890625 806.621094 510.757812 798.152344 510.757812 C 789.703125 510.757812 782.839844 503.890625 782.839844 495.441406 L 782.839844 406.28125 C 782.839844 397.832031 789.703125 390.964844 798.152344 390.964844 C 806.621094 390.964844 813.488281 397.832031 813.488281 406.28125 L 813.488281 495.441406 " fill-opacity="1" fill-rule="nonzero"/><path fill="#ffde59" d="M 856.667969 475.234375 C 856.667969 482.15625 851.058594 487.765625 844.117188 487.765625 C 837.214844 487.765625 831.585938 482.15625 831.585938 475.234375 L 831.585938 426.488281 C 831.585938 419.546875 837.214844 413.957031 844.117188 413.957031 C 851.058594 413.957031 856.667969 419.546875 856.667969 426.488281 L 856.667969 475.234375 " fill-opacity="1" fill-rule="nonzero"/><path fill="#ffde59" d="M 337.105469 611.730469 C 337.105469 624.804688 347.71875 635.417969 360.792969 635.417969 L 362.164062 635.417969 C 375.253906 635.417969 385.851562 624.804688 385.851562 611.730469 L 385.851562 289.992188 C 385.851562 276.910156 375.253906 266.296875 362.164062 266.296875 L 360.792969 266.296875 C 347.71875 266.296875 337.105469 276.910156 337.105469 289.984375 L 337.105469 611.726562 " fill-opacity="1" fill-rule="nonzero"/><path fill="#ffde59" d="M 267.453125 549.757812 C 267.453125 562.054688 277.429688 572.035156 289.746094 572.035156 C 302.046875 572.035156 312.042969 562.054688 312.042969 549.757812 L 312.042969 351.964844 C 312.042969 339.648438 302.046875 329.667969 289.746094 329.667969 C 277.429688 329.667969 267.453125 339.648438 267.453125 351.964844 L 267.453125 549.757812 " fill-opacity="1" fill-rule="nonzero"/><path fill="#ffde59" d="M 201.996094 604.074219 C 201.996094 614.84375 210.726562 623.566406 221.496094 623.566406 C 232.277344 623.566406 241 614.84375 241 604.074219 L 241 297.628906 C 241 286.871094 232.277344 278.140625 221.496094 278.140625 C 210.726562 278.140625 201.996094 286.871094 201.996094 297.636719 L 201.996094 604.082031 " fill-opacity="1" fill-rule="nonzero"/><path fill="#ffde59" d="M 140.707031 517.71875 C 140.707031 527.714844 148.816406 535.816406 158.8125 535.816406 C 168.820312 535.816406 176.917969 527.714844 176.917969 517.71875 L 176.917969 383.984375 C 176.917969 373.988281 168.820312 365.886719 158.8125 365.886719 C 148.816406 365.886719 140.707031 373.988281 140.707031 383.984375 L 140.707031 517.71875 " fill-opacity="1" fill-rule="nonzero"/><path fill="#ffde59" d="M 86.382812 495.441406 C 86.382812 503.890625 93.246094 510.757812 101.707031 510.757812 C 110.167969 510.757812 117.03125 503.890625 117.03125 495.441406 L 117.03125 406.28125 C 117.03125 397.832031 110.167969 390.964844 101.707031 390.964844 C 93.246094 390.964844 86.382812 397.832031 86.382812 406.28125 L 86.382812 495.441406 " fill-opacity="1" fill-rule="nonzero"/><path fill="#ffde59" d="M 43.207031 475.234375 C 43.207031 482.15625 48.816406 487.765625 55.738281 487.765625 C 62.671875 487.765625 68.277344 482.15625 68.277344 475.234375 L 68.277344 426.488281 C 68.277344 419.546875 62.671875 413.957031 55.738281 413.957031 C 48.816406 413.957031 43.207031 419.546875 43.207031 426.488281 L 43.207031 475.234375 " fill-opacity="1" fill-rule="nonzero"/></svg>