<svg xmlns="http://www.w3.org/2000/svg" xmlns:xlink="http://www.w3.org/1999/xlink" width="1200" zoomAndPan="magnify" viewBox="0 0 900 374.999991" height="500" preserveAspectRatio="xMidYMid meet" version="1.0"><defs><g/></defs><g fill="#ffde59" fill-opacity="1"><g transform="translate(98.082505, 330.937968)"><g><path d="M 35.8125 -50.328125 C 35.175781 -49.535156 34.550781 -48.738281 33.9375 -47.9375 C 33.320312 -47.144531 32.695312 -46.347656 32.0625 -45.546875 C 31.632812 -45.972656 31.078125 -46.4375 30.390625 -46.9375 C 29.703125 -47.445312 28.914062 -47.910156 28.03125 -48.328125 C 27.15625 -48.753906 26.171875 -49.113281 25.078125 -49.40625 C 23.992188 -49.707031 22.835938 -49.859375 21.609375 -49.859375 C 18.523438 -49.859375 16.238281 -48.976562 14.75 -47.21875 C 13.257812 -45.46875 12.515625 -43.394531 12.515625 -41 C 12.515625 -39.664062 12.765625 -38.546875 13.265625 -37.640625 C 13.773438 -36.742188 14.441406 -35.988281 15.265625 -35.375 C 16.097656 -34.757812 17.03125 -34.238281 18.0625 -33.8125 C 19.101562 -33.394531 20.179688 -33 21.296875 -32.625 C 23.046875 -31.988281 24.929688 -31.226562 26.953125 -30.34375 C 28.972656 -29.46875 30.847656 -28.351562 32.578125 -27 C 34.304688 -25.644531 35.742188 -23.984375 36.890625 -22.015625 C 38.035156 -20.046875 38.609375 -17.679688 38.609375 -14.921875 C 38.609375 -12.523438 38.164062 -10.367188 37.28125 -8.453125 C 36.40625 -6.535156 35.207031 -4.898438 33.6875 -3.546875 C 32.175781 -2.191406 30.410156 -1.15625 28.390625 -0.4375 C 26.367188 0.28125 24.242188 0.640625 22.015625 0.640625 C 19.992188 0.640625 18.023438 0.363281 16.109375 -0.1875 C 14.191406 -0.75 12.4375 -1.46875 10.84375 -2.34375 C 9.25 -3.226562 7.828125 -4.203125 6.578125 -5.265625 C 5.328125 -6.328125 4.359375 -7.390625 3.671875 -8.453125 L 7.8125 -12.609375 C 8.507812 -11.859375 9.332031 -11.070312 10.28125 -10.25 C 11.238281 -9.425781 12.273438 -8.664062 13.390625 -7.96875 C 14.515625 -7.28125 15.738281 -6.722656 17.0625 -6.296875 C 18.394531 -5.867188 19.832031 -5.65625 21.375 -5.65625 C 22.757812 -5.65625 24.085938 -5.851562 25.359375 -6.25 C 26.640625 -6.65625 27.769531 -7.242188 28.75 -8.015625 C 29.738281 -8.785156 30.523438 -9.753906 31.109375 -10.921875 C 31.691406 -12.097656 31.984375 -13.457031 31.984375 -15 C 31.984375 -17.125 31.460938 -18.847656 30.421875 -20.171875 C 29.390625 -21.503906 28.113281 -22.609375 26.59375 -23.484375 C 25.082031 -24.367188 23.503906 -25.078125 21.859375 -25.609375 C 20.210938 -26.140625 18.773438 -26.644531 17.546875 -27.125 C 16.585938 -27.488281 15.441406 -27.988281 14.109375 -28.625 C 12.785156 -29.269531 11.523438 -30.132812 10.328125 -31.21875 C 9.128906 -32.3125 8.101562 -33.671875 7.25 -35.296875 C 6.40625 -36.921875 5.957031 -38.898438 5.90625 -41.234375 C 5.851562 -42.992188 6.09375 -44.75 6.625 -46.5 C 7.15625 -48.257812 8.03125 -49.851562 9.25 -51.28125 C 10.476562 -52.71875 12.101562 -53.890625 14.125 -54.796875 C 16.144531 -55.703125 18.613281 -56.15625 21.53125 -56.15625 C 23.664062 -56.15625 25.875 -55.78125 28.15625 -55.03125 C 30.445312 -54.289062 33 -52.722656 35.8125 -50.328125 Z M 35.8125 -50.328125 "/></g></g></g><g fill="#ffde59" fill-opacity="1"><g transform="translate(142.976745, 330.937968)"><g><path d="M 26.15625 0.640625 C 23.289062 0.640625 20.632812 0.242188 18.1875 -0.546875 C 15.738281 -1.347656 13.609375 -2.535156 11.796875 -4.109375 C 9.992188 -5.679688 8.585938 -7.632812 7.578125 -9.96875 C 6.566406 -12.3125 6.0625 -15 6.0625 -18.03125 L 6.0625 -55.828125 L 12.6875 -55.828125 L 12.6875 -18.265625 C 12.6875 -16.242188 13.015625 -14.445312 13.671875 -12.875 C 14.335938 -11.3125 15.269531 -10 16.46875 -8.9375 C 17.664062 -7.875 19.085938 -7.0625 20.734375 -6.5 C 22.390625 -5.9375 24.195312 -5.65625 26.15625 -5.65625 C 28.125 -5.65625 29.929688 -5.9375 31.578125 -6.5 C 33.234375 -7.0625 34.660156 -7.875 35.859375 -8.9375 C 37.054688 -10 38 -11.3125 38.6875 -12.875 C 39.375 -14.445312 39.71875 -16.242188 39.71875 -18.265625 L 39.71875 -55.828125 L 46.34375 -55.828125 L 46.34375 -18.03125 C 46.34375 -15 45.820312 -12.3125 44.78125 -9.96875 C 43.75 -7.632812 42.328125 -5.679688 40.515625 -4.109375 C 38.710938 -2.535156 36.585938 -1.347656 34.140625 -0.546875 C 31.691406 0.242188 29.03125 0.640625 26.15625 0.640625 Z M 26.15625 0.640625 "/></g></g></g><g fill="#ffde59" fill-opacity="1"><g transform="translate(194.96796, 330.937968)"><g><path d="M 30.3125 -41.078125 L 29.59375 -43.71875 C 28.84375 -41.050781 27.910156 -38.46875 26.796875 -35.96875 C 25.679688 -33.46875 24.59375 -30.941406 23.53125 -28.390625 L 35.65625 -28.390625 C 34.75 -30.523438 33.859375 -32.640625 32.984375 -34.734375 C 32.109375 -36.835938 31.21875 -38.953125 30.3125 -41.078125 Z M 54.328125 0 L 47.703125 0 C 46.160156 -3.664062 44.601562 -7.347656 43.03125 -11.046875 C 41.46875 -14.742188 39.914062 -18.425781 38.375 -22.09375 L 20.8125 -22.09375 C 19.269531 -18.425781 17.710938 -14.742188 16.140625 -11.046875 C 14.578125 -7.347656 13.023438 -3.664062 11.484375 0 L 4.859375 0 C 9.015625 -9.78125 13.140625 -19.507812 17.234375 -29.1875 C 21.328125 -38.875 25.445312 -48.609375 29.59375 -58.390625 C 33.738281 -48.609375 37.859375 -38.875 41.953125 -29.1875 C 46.046875 -19.507812 50.171875 -9.78125 54.328125 0 Z M 54.328125 0 "/></g></g></g><g fill="#ffde59" fill-opacity="1"><g transform="translate(253.976397, 330.937968)"><g/></g></g><g fill="#ffde59" fill-opacity="1"><g transform="translate(277.898722, 330.937968)"><g><path d="M 5.5 0 L 5.5 -55.828125 L 12.125 -55.828125 L 12.125 -6.296875 L 41 -6.296875 L 41 0 Z M 5.5 0 "/></g></g></g><g fill="#ffde59" fill-opacity="1"><g transform="translate(325.185213, 330.937968)"><g><path d="M 4.953125 -27.84375 C 4.953125 -31.71875 5.691406 -35.394531 7.171875 -38.875 C 8.660156 -42.363281 10.695312 -45.410156 13.28125 -48.015625 C 15.863281 -50.617188 18.878906 -52.675781 22.328125 -54.1875 C 25.785156 -55.707031 29.484375 -56.46875 33.421875 -56.46875 C 37.304688 -56.46875 40.988281 -55.707031 44.46875 -54.1875 C 47.945312 -52.675781 50.988281 -50.617188 53.59375 -48.015625 C 56.207031 -45.410156 58.269531 -42.363281 59.78125 -38.875 C 61.300781 -35.394531 62.0625 -31.71875 62.0625 -27.84375 C 62.0625 -23.90625 61.300781 -20.207031 59.78125 -16.75 C 58.269531 -13.289062 56.207031 -10.269531 53.59375 -7.6875 C 50.988281 -5.113281 47.945312 -3.082031 44.46875 -1.59375 C 40.988281 -0.101562 37.304688 0.640625 33.421875 0.640625 C 29.484375 0.640625 25.785156 -0.101562 22.328125 -1.59375 C 18.878906 -3.082031 15.863281 -5.113281 13.28125 -7.6875 C 10.695312 -10.269531 8.660156 -13.289062 7.171875 -16.75 C 5.691406 -20.207031 4.953125 -23.90625 4.953125 -27.84375 Z M 11.5625 -27.84375 C 11.5625 -24.757812 12.132812 -21.875 13.28125 -19.1875 C 14.425781 -16.5 15.992188 -14.15625 17.984375 -12.15625 C 19.984375 -10.164062 22.3125 -8.582031 24.96875 -7.40625 C 27.625 -6.238281 30.46875 -5.65625 33.5 -5.65625 C 36.53125 -5.65625 39.375 -6.238281 42.03125 -7.40625 C 44.695312 -8.582031 47.023438 -10.164062 49.015625 -12.15625 C 51.003906 -14.15625 52.570312 -16.5 53.71875 -19.1875 C 54.863281 -21.875 55.4375 -24.757812 55.4375 -27.84375 C 55.4375 -30.925781 54.863281 -33.804688 53.71875 -36.484375 C 52.570312 -39.171875 51.003906 -41.523438 49.015625 -43.546875 C 47.023438 -45.566406 44.695312 -47.160156 42.03125 -48.328125 C 39.375 -49.503906 36.53125 -50.09375 33.5 -50.09375 C 30.46875 -50.09375 27.625 -49.503906 24.96875 -48.328125 C 22.3125 -47.160156 19.984375 -45.566406 17.984375 -43.546875 C 15.992188 -41.523438 14.425781 -39.171875 13.28125 -36.484375 C 12.132812 -33.804688 11.5625 -30.925781 11.5625 -27.84375 Z M 11.5625 -27.84375 "/></g></g></g><g fill="#ffde59" fill-opacity="1"><g transform="translate(392.167768, 330.937968)"><g><path d="M 33.109375 -17.625 L 33.109375 -23.921875 L 44.109375 -23.921875 C 45.648438 -23.921875 46.671875 -23.535156 47.171875 -22.765625 C 47.679688 -21.992188 47.9375 -20.785156 47.9375 -19.140625 L 47.9375 -3.34375 C 45.8125 -2.125 43.535156 -1.15625 41.109375 -0.4375 C 38.691406 0.28125 36.128906 0.640625 33.421875 0.640625 C 29.484375 0.640625 25.785156 -0.101562 22.328125 -1.59375 C 18.878906 -3.082031 15.863281 -5.113281 13.28125 -7.6875 C 10.695312 -10.269531 8.660156 -13.289062 7.171875 -16.75 C 5.691406 -20.207031 4.953125 -23.90625 4.953125 -27.84375 C 4.953125 -31.769531 5.691406 -35.472656 7.171875 -38.953125 C 8.660156 -42.441406 10.695312 -45.472656 13.28125 -48.046875 C 15.863281 -50.628906 18.878906 -52.675781 22.328125 -54.1875 C 25.785156 -55.707031 29.484375 -56.46875 33.421875 -56.46875 C 36.128906 -56.46875 38.691406 -56.125 41.109375 -55.4375 C 43.535156 -54.75 45.835938 -53.765625 48.015625 -52.484375 C 47.429688 -51.578125 46.820312 -50.6875 46.1875 -49.8125 C 45.550781 -48.9375 44.9375 -48.046875 44.34375 -47.140625 C 42.695312 -48.097656 40.96875 -48.84375 39.15625 -49.375 C 37.351562 -49.90625 35.441406 -50.171875 33.421875 -50.171875 C 30.390625 -50.171875 27.554688 -49.582031 24.921875 -48.40625 C 22.296875 -47.238281 19.984375 -45.628906 17.984375 -43.578125 C 15.992188 -41.535156 14.425781 -39.160156 13.28125 -36.453125 C 12.132812 -33.742188 11.5625 -30.875 11.5625 -27.84375 C 11.5625 -24.8125 12.132812 -21.9375 13.28125 -19.21875 C 14.425781 -16.507812 15.992188 -14.15625 17.984375 -12.15625 C 19.984375 -10.164062 22.296875 -8.582031 24.921875 -7.40625 C 27.554688 -6.238281 30.390625 -5.65625 33.421875 -5.65625 C 36.179688 -5.65625 38.8125 -6.132812 41.3125 -7.09375 L 41.3125 -15.234375 C 41.3125 -16.140625 41.21875 -16.765625 41.03125 -17.109375 C 40.851562 -17.453125 40.335938 -17.625 39.484375 -17.625 Z M 33.109375 -17.625 "/></g></g></g><g fill="#ffde59" fill-opacity="1"><g transform="translate(447.348625, 330.937968)"><g><path d="M 4.953125 -27.84375 C 4.953125 -31.71875 5.691406 -35.394531 7.171875 -38.875 C 8.660156 -42.363281 10.695312 -45.410156 13.28125 -48.015625 C 15.863281 -50.617188 18.878906 -52.675781 22.328125 -54.1875 C 25.785156 -55.707031 29.484375 -56.46875 33.421875 -56.46875 C 37.304688 -56.46875 40.988281 -55.707031 44.46875 -54.1875 C 47.945312 -52.675781 50.988281 -50.617188 53.59375 -48.015625 C 56.207031 -45.410156 58.269531 -42.363281 59.78125 -38.875 C 61.300781 -35.394531 62.0625 -31.71875 62.0625 -27.84375 C 62.0625 -23.90625 61.300781 -20.207031 59.78125 -16.75 C 58.269531 -13.289062 56.207031 -10.269531 53.59375 -7.6875 C 50.988281 -5.113281 47.945312 -3.082031 44.46875 -1.59375 C 40.988281 -0.101562 37.304688 0.640625 33.421875 0.640625 C 29.484375 0.640625 25.785156 -0.101562 22.328125 -1.59375 C 18.878906 -3.082031 15.863281 -5.113281 13.28125 -7.6875 C 10.695312 -10.269531 8.660156 -13.289062 7.171875 -16.75 C 5.691406 -20.207031 4.953125 -23.90625 4.953125 -27.84375 Z M 11.5625 -27.84375 C 11.5625 -24.757812 12.132812 -21.875 13.28125 -19.1875 C 14.425781 -16.5 15.992188 -14.15625 17.984375 -12.15625 C 19.984375 -10.164062 22.3125 -8.582031 24.96875 -7.40625 C 27.625 -6.238281 30.46875 -5.65625 33.5 -5.65625 C 36.53125 -5.65625 39.375 -6.238281 42.03125 -7.40625 C 44.695312 -8.582031 47.023438 -10.164062 49.015625 -12.15625 C 51.003906 -14.15625 52.570312 -16.5 53.71875 -19.1875 C 54.863281 -21.875 55.4375 -24.757812 55.4375 -27.84375 C 55.4375 -30.925781 54.863281 -33.804688 53.71875 -36.484375 C 52.570312 -39.171875 51.003906 -41.523438 49.015625 -43.546875 C 47.023438 -45.566406 44.695312 -47.160156 42.03125 -48.328125 C 39.375 -49.503906 36.53125 -50.09375 33.5 -50.09375 C 30.46875 -50.09375 27.625 -49.503906 24.96875 -48.328125 C 22.3125 -47.160156 19.984375 -45.566406 17.984375 -43.546875 C 15.992188 -41.523438 14.425781 -39.171875 13.28125 -36.484375 C 12.132812 -33.804688 11.5625 -30.925781 11.5625 -27.84375 Z M 11.5625 -27.84375 "/></g></g></g><g fill="#ffde59" fill-opacity="1"><g transform="translate(514.33118, 330.937968)"><g><path d="M 7.96875 -58.390625 C 12.863281 -52.054688 17.726562 -45.738281 22.5625 -39.4375 C 27.40625 -33.132812 32.273438 -26.820312 37.171875 -20.5 C 42.066406 -26.820312 46.929688 -33.132812 51.765625 -39.4375 C 56.609375 -45.738281 61.472656 -52.054688 66.359375 -58.390625 L 66.359375 0 L 59.75 0 L 59.75 -37.484375 C 59.800781 -37.910156 59.835938 -38.335938 59.859375 -38.765625 C 59.890625 -39.191406 59.929688 -39.617188 59.984375 -40.046875 C 56.472656 -34.828125 52.75 -29.757812 48.8125 -24.84375 C 44.875 -19.925781 40.992188 -14.96875 37.171875 -9.96875 C 33.609375 -14.644531 30.046875 -19.296875 26.484375 -23.921875 C 22.921875 -28.554688 19.359375 -33.210938 15.796875 -37.890625 L 14.359375 -40.046875 C 14.410156 -39.617188 14.445312 -39.191406 14.46875 -38.765625 C 14.5 -38.335938 14.539062 -37.910156 14.59375 -37.484375 L 14.59375 0 L 7.96875 0 Z M 7.96875 -58.390625 "/></g></g></g><g fill="#ffde59" fill-opacity="1"><g transform="translate(589.048624, 330.937968)"><g><path d="M 30.3125 -41.078125 L 29.59375 -43.71875 C 28.84375 -41.050781 27.910156 -38.46875 26.796875 -35.96875 C 25.679688 -33.46875 24.59375 -30.941406 23.53125 -28.390625 L 35.65625 -28.390625 C 34.75 -30.523438 33.859375 -32.640625 32.984375 -34.734375 C 32.109375 -36.835938 31.21875 -38.953125 30.3125 -41.078125 Z M 54.328125 0 L 47.703125 0 C 46.160156 -3.664062 44.601562 -7.347656 43.03125 -11.046875 C 41.46875 -14.742188 39.914062 -18.425781 38.375 -22.09375 L 20.8125 -22.09375 C 19.269531 -18.425781 17.710938 -14.742188 16.140625 -11.046875 C 14.578125 -7.347656 13.023438 -3.664062 11.484375 0 L 4.859375 0 C 9.015625 -9.78125 13.140625 -19.507812 17.234375 -29.1875 C 21.328125 -38.875 25.445312 -48.609375 29.59375 -58.390625 C 33.738281 -48.609375 37.859375 -38.875 41.953125 -29.1875 C 46.046875 -19.507812 50.171875 -9.78125 54.328125 0 Z M 54.328125 0 "/></g></g></g><g fill="#ffde59" fill-opacity="1"><g transform="translate(648.05706, 330.937968)"><g><path d="M 11.25 -31.265625 L 18.1875 -31.265625 C 20.53125 -31.265625 22.457031 -31.570312 23.96875 -32.1875 C 25.488281 -32.800781 26.695312 -33.554688 27.59375 -34.453125 C 28.5 -35.359375 29.140625 -36.367188 29.515625 -37.484375 C 29.890625 -38.609375 30.078125 -39.675781 30.078125 -40.6875 C 30.078125 -41.851562 29.769531 -42.976562 29.15625 -44.0625 C 28.539062 -45.15625 27.710938 -46.113281 26.671875 -46.9375 C 25.640625 -47.757812 24.390625 -48.410156 22.921875 -48.890625 C 21.460938 -49.367188 19.910156 -49.609375 18.265625 -49.609375 L 11.25 -49.609375 Z M 4.625 0 L 4.625 -55.828125 L 17.78125 -55.828125 C 19.59375 -55.828125 21.601562 -55.546875 23.8125 -54.984375 C 26.019531 -54.429688 28.078125 -53.539062 29.984375 -52.3125 C 31.898438 -51.09375 33.492188 -49.523438 34.765625 -47.609375 C 36.046875 -45.703125 36.6875 -43.394531 36.6875 -40.6875 C 36.6875 -36.695312 35.6875 -33.359375 33.6875 -30.671875 C 31.695312 -27.984375 28.789062 -26.210938 24.96875 -25.359375 L 36.9375 0 L 29.75 0 L 18.03125 -24.890625 L 11.25 -24.890625 L 11.25 0 Z M 4.625 0 "/></g></g></g><g fill="#ffde59" fill-opacity="1"><g transform="translate(689.442702, 330.937968)"><g><path d="M 44.34375 -8.609375 L 47.9375 -3.34375 C 45.8125 -2.125 43.535156 -1.15625 41.109375 -0.4375 C 38.691406 0.28125 36.128906 0.640625 33.421875 0.640625 C 29.484375 0.640625 25.785156 -0.101562 22.328125 -1.59375 C 18.878906 -3.082031 15.863281 -5.113281 13.28125 -7.6875 C 10.695312 -10.269531 8.660156 -13.289062 7.171875 -16.75 C 5.691406 -20.207031 4.953125 -23.90625 4.953125 -27.84375 C 4.953125 -31.769531 5.691406 -35.472656 7.171875 -38.953125 C 8.660156 -42.441406 10.695312 -45.472656 13.28125 -48.046875 C 15.863281 -50.628906 18.878906 -52.675781 22.328125 -54.1875 C 25.785156 -55.707031 29.484375 -56.46875 33.421875 -56.46875 C 36.128906 -56.46875 38.691406 -56.125 41.109375 -55.4375 C 43.535156 -54.75 45.835938 -53.765625 48.015625 -52.484375 C 47.429688 -51.578125 46.820312 -50.6875 46.1875 -49.8125 C 45.550781 -48.9375 44.9375 -48.046875 44.34375 -47.140625 C 42.695312 -48.097656 40.96875 -48.84375 39.15625 -49.375 C 37.351562 -49.90625 35.441406 -50.171875 33.421875 -50.171875 C 30.390625 -50.171875 27.554688 -49.582031 24.921875 -48.40625 C 22.296875 -47.238281 19.984375 -45.628906 17.984375 -43.578125 C 15.992188 -41.535156 14.425781 -39.160156 13.28125 -36.453125 C 12.132812 -33.742188 11.5625 -30.875 11.5625 -27.84375 C 11.5625 -24.8125 12.132812 -21.9375 13.28125 -19.21875 C 14.425781 -16.507812 15.992188 -14.15625 17.984375 -12.15625 C 19.984375 -10.164062 22.296875 -8.582031 24.921875 -7.40625 C 27.554688 -6.238281 30.390625 -5.65625 33.421875 -5.65625 C 37.359375 -5.65625 41 -6.640625 44.34375 -8.609375 Z M 44.34375 -8.609375 "/></g></g></g><g fill="#ffde59" fill-opacity="1"><g transform="translate(742.869273, 330.937968)"><g><path d="M 30.3125 -41.078125 L 29.59375 -43.71875 C 28.84375 -41.050781 27.910156 -38.46875 26.796875 -35.96875 C 25.679688 -33.46875 24.59375 -30.941406 23.53125 -28.390625 L 35.65625 -28.390625 C 34.75 -30.523438 33.859375 -32.640625 32.984375 -34.734375 C 32.109375 -36.835938 31.21875 -38.953125 30.3125 -41.078125 Z M 54.328125 0 L 47.703125 0 C 46.160156 -3.664062 44.601562 -7.347656 43.03125 -11.046875 C 41.46875 -14.742188 39.914062 -18.425781 38.375 -22.09375 L 20.8125 -22.09375 C 19.269531 -18.425781 17.710938 -14.742188 16.140625 -11.046875 C 14.578125 -7.347656 13.023438 -3.664062 11.484375 0 L 4.859375 0 C 9.015625 -9.78125 13.140625 -19.507812 17.234375 -29.1875 C 21.328125 -38.875 25.445312 -48.609375 29.59375 -58.390625 C 33.738281 -48.609375 37.859375 -38.875 41.953125 -29.1875 C 46.046875 -19.507812 50.171875 -9.78125 54.328125 0 Z M 54.328125 0 "/></g></g></g><path fill="#ffde59" d="M 463.117188 224.890625 C 463.117188 230.207031 458.816406 234.507812 453.519531 234.507812 L 446.191406 234.507812 C 440.882812 234.507812 436.589844 230.207031 436.589844 224.890625 L 436.589844 45.664062 C 436.589844 40.355469 440.882812 36.050781 446.191406 36.050781 L 453.519531 36.050781 C 458.816406 36.050781 463.117188 40.355469 463.117188 45.664062 L 463.117188 224.894531 " fill-opacity="1" fill-rule="nonzero"/><path fill="#ffde59" d="M 495.578125 200.582031 C 495.578125 205.890625 491.277344 210.199219 485.976562 210.199219 L 485.414062 210.199219 C 480.117188 210.199219 475.8125 205.890625 475.8125 200.582031 L 475.8125 69.980469 C 475.8125 64.667969 480.117188 60.363281 485.414062 60.363281 L 485.976562 60.363281 C 491.277344 60.363281 495.578125 64.667969 495.578125 69.976562 L 495.578125 200.582031 " fill-opacity="1" fill-rule="nonzero"/><path fill="#ffde59" d="M 523.796875 175.425781 C 523.796875 180.417969 519.753906 184.46875 514.769531 184.46875 C 509.777344 184.46875 505.734375 180.417969 505.734375 175.425781 L 505.734375 95.136719 C 505.734375 90.136719 509.777344 86.085938 514.769531 86.085938 C 519.753906 86.085938 523.796875 90.136719 523.796875 95.136719 L 523.796875 175.425781 " fill-opacity="1" fill-rule="nonzero"/><path fill="#ffde59" d="M 550.335938 197.476562 C 550.335938 201.847656 546.792969 205.386719 542.425781 205.386719 C 538.0625 205.386719 534.527344 201.847656 534.527344 197.476562 L 534.527344 73.078125 C 534.527344 68.714844 538.0625 65.167969 542.425781 65.167969 C 546.792969 65.167969 550.335938 68.714844 550.335938 73.082031 L 550.335938 197.476562 " fill-opacity="1" fill-rule="nonzero"/><path fill="#ffde59" d="M 575.175781 162.421875 C 575.175781 166.476562 571.886719 169.765625 567.832031 169.765625 C 563.78125 169.765625 560.5 166.476562 560.5 162.421875 L 560.5 108.132812 C 560.5 104.078125 563.78125 100.789062 567.832031 100.789062 C 571.886719 100.789062 575.175781 104.078125 575.175781 108.132812 L 575.175781 162.421875 " fill-opacity="1" fill-rule="nonzero"/><path fill="#ffde59" d="M 597.191406 153.378906 C 597.191406 156.808594 594.410156 159.59375 590.976562 159.59375 C 587.550781 159.59375 584.769531 156.808594 584.769531 153.378906 L 584.769531 117.183594 C 584.769531 113.753906 587.550781 110.96875 590.976562 110.96875 C 594.410156 110.96875 597.191406 113.753906 597.191406 117.183594 L 597.191406 153.378906 " fill-opacity="1" fill-rule="nonzero"/><path fill="#ffde59" d="M 614.691406 145.175781 C 614.691406 147.984375 612.417969 150.261719 609.605469 150.261719 C 606.804688 150.261719 604.527344 147.984375 604.527344 145.175781 L 604.527344 125.386719 C 604.527344 122.570312 606.804688 120.300781 609.605469 120.300781 C 612.417969 120.300781 614.691406 122.570312 614.691406 125.386719 L 614.691406 145.175781 " fill-opacity="1" fill-rule="nonzero"/><path fill="#ffde59" d="M 404.121094 200.582031 C 404.121094 205.890625 408.425781 210.199219 413.722656 210.199219 L 414.277344 210.199219 C 419.585938 210.199219 423.878906 205.890625 423.878906 200.582031 L 423.878906 69.980469 C 423.878906 64.667969 419.585938 60.363281 414.277344 60.363281 L 413.722656 60.363281 C 408.425781 60.363281 404.121094 64.667969 404.121094 69.976562 L 404.121094 200.582031 " fill-opacity="1" fill-rule="nonzero"/><path fill="#ffde59" d="M 375.894531 175.425781 C 375.894531 180.417969 379.9375 184.46875 384.929688 184.46875 C 389.914062 184.46875 393.964844 180.417969 393.964844 175.425781 L 393.964844 95.136719 C 393.964844 90.136719 389.914062 86.085938 384.929688 86.085938 C 379.9375 86.085938 375.894531 90.136719 375.894531 95.136719 L 375.894531 175.425781 " fill-opacity="1" fill-rule="nonzero"/><path fill="#ffde59" d="M 349.363281 197.476562 C 349.363281 201.847656 352.902344 205.386719 357.269531 205.386719 C 361.636719 205.386719 365.171875 201.847656 365.171875 197.476562 L 365.171875 73.078125 C 365.171875 68.714844 361.636719 65.167969 357.269531 65.167969 C 352.902344 65.167969 349.363281 68.714844 349.363281 73.082031 L 349.363281 197.476562 " fill-opacity="1" fill-rule="nonzero"/><path fill="#ffde59" d="M 324.527344 162.421875 C 324.527344 166.476562 327.8125 169.765625 331.863281 169.765625 C 335.921875 169.765625 339.203125 166.476562 339.203125 162.421875 L 339.203125 108.132812 C 339.203125 104.078125 335.921875 100.789062 331.863281 100.789062 C 327.8125 100.789062 324.527344 104.078125 324.527344 108.132812 L 324.527344 162.421875 " fill-opacity="1" fill-rule="nonzero"/><path fill="#ffde59" d="M 302.507812 153.378906 C 302.507812 156.808594 305.292969 159.59375 308.722656 159.59375 C 312.148438 159.59375 314.929688 156.808594 314.929688 153.378906 L 314.929688 117.183594 C 314.929688 113.753906 312.148438 110.96875 308.722656 110.96875 C 305.292969 110.96875 302.507812 113.753906 302.507812 117.183594 L 302.507812 153.378906 " fill-opacity="1" fill-rule="nonzero"/><path fill="#ffde59" d="M 285.011719 145.175781 C 285.011719 147.984375 287.285156 150.261719 290.089844 150.261719 C 292.898438 150.261719 295.171875 147.984375 295.171875 145.175781 L 295.171875 125.386719 C 295.171875 122.570312 292.898438 120.300781 290.089844 120.300781 C 287.285156 120.300781 285.011719 122.570312 285.011719 125.386719 L 285.011719 145.175781 " fill-opacity="1" fill-rule="nonzero"/></svg>